{
  "accessors": [
    {
      "bufferView": 1,
      "componentType": 5126,
      "count": 65532,
      "max": [
        21.40913963317871,
        -4.4920430183410645,
        9.33063793182373
      ],
      "min": [
        -15.643198013305664,
        -17.577007293701172,
        -4.838206768035889
      ],
      "type": "VEC3"
    },
    {
      "bufferView": 1,
      "byteOffset": 786384,
      "componentType": 5126,
      "count": 65532,
      "max": [
        0.9999640583992004,
        0.9999281167984009,
        0.9999885559082031
      ],
      "min": [
        -0.999986469745636,
        -0.9999957084655762,
        -0.9999988675117493
      ],
      "type": "VEC3"
    },
    {
      "bufferView": 2,
      "componentType": 5126,
      "count": 65532,
      "max": [
        0.9921568632125854,
        0.9921568632125854,
        0.9921568632125854,
        1.0
      ],
      "min": [
        0.05882352963089943,
        0.0,
        0.0,
        1.0
      ],
      "type": "VEC4"
    },
    {
      "bufferView": 0,
      "componentType": 5125,
      "count": 323364,
      "type": "SCALAR"
    },
    {
      "bufferView": 1,
      "byteOffset": 1572768,
      "componentType": 5126,
      "count": 65534,
      "max": [
        18.734256744384766,
        -6.72585391998291,
        8.86601734161377
      ],
      "min": [
        -15.743127822875977,
        -17.328012466430664,
        -5.397922992706299
      ],
      "type": "VEC3"
    },
    {
      "bufferView": 1,
      "byteOffset": 2359176,
      "componentType": 5126,
      "count": 65534,
      "max": [
        0.9999878406524658,
        0.9999194145202637,
        0.9999874234199524
      ],
      "min": [
        -0.9997893571853638,
        -0.9998860359191895,
        -0.9999650716781616
      ],
      "type": "VEC3"
    },
    {
      "bufferView": 2,
      "byteOffset": 1048512,
      "componentType": 5126,
      "count": 65534,
      "max": [
        0.9921568632125854,
        0.9921568632125854,
        0.9921568632125854,
        1.0
      ],
      "min": [
        0.08235294371843338,
        0.0,
        0.0,
        1.0
      ],
      "type": "VEC4"
    },
    {
      "bufferView": 0,
      "byteOffset": 1293456,
      "componentType": 5125,
      "count": 299346,
      "type": "SCALAR"
    },
    {
      "bufferView": 1,
      "byteOffset": 3145584,
      "componentType": 5126,
      "count": 65532,
      "max": [
        9.78026294708252,
        -6.18140983581543,
        7.613036155700684
      ],
      "min": [
        -4.084716796875,
        -18.081296920776367,
        -3.8346710205078125
      ],
      "type": "VEC3"
    },
    {
      "bufferView": 1,
      "byteOffset": 3931968,
      "componentType": 5126,
      "count": 65532,
      "max": [
        0.9999104142189026,
        0.9998492002487183,
        0.9999619126319885
      ],
      "min": [
        -0.9999852776527405,
        -0.9999784827232361,
        -0.9999787211418152
      ],
      "type": "VEC3"
    },
    {
      "bufferView": 2,
      "byteOffset": 2097056,
      "componentType": 5126,
      "count": 65532,
      "max": [
        0.9921568632125854,
        0.9921568632125854,
        0.9921568632125854,
        1.0
      ],
      "min": [
        0.16470588743686676,
        0.0470588244497776,
        0.0117647061124444,
        1.0
      ],
      "type": "VEC4"
    },
    {
      "bufferView": 0,
      "byteOffset": 2490840,
      "componentType": 5125,
      "count": 310194,
      "type": "SCALAR"
    },
    {
      "bufferView": 1,
      "byteOffset": 4718352,
      "componentType": 5126,
      "count": 65532,
      "max": [
        17.8851261138916,
        -2.0889599323272705,
        6.637538909912109
      ],
      "min": [
        -6.656548023223877,
        -18.072420120239258,
        -4.5141987800598145
      ],
      "type": "VEC3"
    },
    {
      "bufferView": 1,
      "byteOffset": 5504736,
      "componentType": 5126,
      "count": 65532,
      "max": [
        0.999963641166687,
        0.9999428987503052,
        0.9999932646751404
      ],
      "min": [
        -0.9999290704727173,
        -0.9999199509620667,
        -0.9999942779541016
      ],
      "type": "VEC3"
    },
    {
      "bufferView": 2,
      "byteOffset": 3145568,
      "componentType": 5126,
      "count": 65532,
      "max": [
        0.9921568632125854,
        0.9921568632125854,
        0.9921568632125854,
        1.0
      ],
      "min": [
        0.13725490868091583,
        0.05882352963089943,
        0.0313725508749485,
        1.0
      ],
      "type": "VEC4"
    },
    {
      "bufferView": 0,
      "byteOffset": 3731616,
      "componentType": 5125,
      "count": 294126,
      "type": "SCALAR"
    },
    {
      "bufferView": 1,
      "byteOffset": 6291120,
      "componentType": 5126,
      "count": 65532,
      "max": [
        21.777681350708008,
        -2.0779531002044678,
        9.33063793182373
      ],
      "min": [
        -15.705000877380371,
        -17.587303161621094,
        -5.387567043304443
      ],
      "type": "VEC3"
    },
    {
      "bufferView": 1,
      "byteOffset": 7077504,
      "componentType": 5126,
      "count": 65532,
      "max": [
        0.999984860420227,
        0.9999871253967285,
        0.9999822974205017
      ],
      "min": [
        -0.9999197721481323,
        -0.9999957084655762,
        -0.9999940395355225
      ],
      "type": "VEC3"
    },
    {
      "bufferView": 2,
      "byteOffset": 4194080,
      "componentType": 5126,
      "count": 65532,
      "max": [
        0.9921568632125854,
        0.9921568632125854,
        0.9921568632125854,
        1.0
      ],
      "min": [
        0.0,
        0.0,
        0.0,
        1.0
      ],
      "type": "VEC4"
    },
    {
      "bufferView": 0,
      "byteOffset": 4908120,
      "componentType": 5125,
      "count": 269178,
      "type": "SCALAR"
    },
    {
      "bufferView": 1,
      "byteOffset": 7863888,
      "componentType": 5126,
      "count": 48712,
      "max": [
        16.118877410888672,
        -3.8731861114501953,
        8.992647171020508
      ],
      "min": [
        -6.139448165893555,
        -17.18496322631836,
        -3.6153719425201416
      ],
      "type": "VEC3"
    },
    {
      "bufferView": 1,
      "byteOffset": 8448432,
      "componentType": 5126,
      "count": 48712,
      "max": [
        0.9999589323997498,
        0.9999428987503052,
        0.9999994039535522
      ],
      "min": [
        -0.9999732971191406,
        -0.9999216794967651,
        -0.9999891519546509
      ],
      "type": "VEC3"
    },
    {
      "bufferView": 2,
      "byteOffset": 5242592,
      "componentType": 5126,
      "count": 48712,
      "max": [
        0.9921568632125854,
        0.9921568632125854,
        0.9921568632125854,
        1.0
      ],
      "min": [
        0.1411764770746231,
        0.06666667014360428,
        0.0117647061124444,
        1.0
      ],
      "type": "VEC4"
    },
    {
      "bufferView": 0,
      "byteOffset": 5984832,
      "componentType": 5125,
      "count": 155742,
      "type": "SCALAR"
    }
  ],
  "asset": {
    "extras": {
      "author": "Austin Beaulier (https://sketchfab.com/Austin.Beaulier)",
      "license": "SKETCHFAB Standard (https://sketchfab.com/licenses)",
      "source": "https://sketchfab.com/3d-models/ancient-rhino-fossil-625d1672538240e994fb4dcc80a493db",
      "title": "Ancient Rhino Fossil"
    },
    "generator": "Sketchfab-15.49.0",
    "version": "2.0"
  },
  "bufferViews": [
    {
      "buffer": 0,
      "byteLength": 6607800,
      "name": "floatBufferViews",
      "target": 34963
    },
    {
      "buffer": 0,
      "byteLength": 9032976,
      "byteOffset": 6607800,
      "byteStride": 12,
      "name": "floatBufferViews",
      "target": 34962
    },
    {
      "buffer": 0,
      "byteLength": 6021984,
      "byteOffset": 15640776,
      "byteStride": 16,
      "name": "floatBufferViews",
      "target": 34962
    }
  ],
  "buffers": [
    {
      "byteLength": 21662760,
      "uri": "scene.bin"
    }
  ],
  "materials": [
    {
      "doubleSided": true,
      "name": "material_0",
      "pbrMetallicRoughness": {
        "metallicFactor": 0.0
      }
    }
  ],
  "meshes": [
    {
      "name": "Object_0",
      "primitives": [
        {
          "attributes": {
            "COLOR_0": 2,
            "NORMAL": 1,
            "POSITION": 0
          },
          "indices": 3,
          "material": 0,
          "mode": 4
        }
      ]
    },
    {
      "name": "Object_1",
      "primitives": [
        {
          "attributes": {
            "COLOR_0": 6,
            "NORMAL": 5,
            "POSITION": 4
          },
          "indices": 7,
          "material": 0,
          "mode": 4
        }
      ]
    },
    {
      "name": "Object_2",
      "primitives": [
        {
          "attributes": {
            "COLOR_0": 10,
            "NORMAL": 9,
            "POSITION": 8
          },
          "indices": 11,
          "material": 0,
          "mode": 4
        }
      ]
    },
    {
      "name": "Object_3",
      "primitives": [
        {
          "attributes": {
            "COLOR_0": 14,
            "NORMAL": 13,
            "POSITION": 12
          },
          "indices": 15,
          "material": 0,
          "mode": 4
        }
      ]
    },
    {
      "name": "Object_4",
      "primitives": [
        {
          "attributes": {
            "COLOR_0": 18,
            "NORMAL": 17,
            "POSITION": 16
          },
          "indices": 19,
          "material": 0,
          "mode": 4
        }
      ]
    },
    {
      "name": "Object_5",
      "primitives": [
        {
          "attributes": {
            "COLOR_0": 22,
            "NORMAL": 21,
            "POSITION": 20
          },
          "indices": 23,
          "material": 0,
          "mode": 4
        }
      ]
    }
  ],
  "nodes": [
    {
      "children": [
        1
      ],
      "matrix": [
        1.0,
        2.220446049250314e-16,
        -5.053215392444312e-16,
        0.0,
        2.220446049250313e-16,
        -1.0,
        -4.440892098500626e-16,
        0.0,
        -5.053215392444312e-16,
        4.440892098500626e-16,
        -1.0,
        0.0,
        0.0,
        0.0,
        0.0,
        1.0
      ],
      "name": "Sketchfab_model"
    },
    {
      "children": [
        2,
        3,
        4,
        5,
        6,
        7
      ],
      "name": "Hippofossilsauris_sm.obj.cleaner.materialmerger.gles"
    },
    {
      "mesh": 0,
      "name": "Object_2"
    },
    {
      "mesh": 1,
      "name": "Object_3"
    },
    {
      "mesh": 2,
      "name": "Object_4"
    },
    {
      "mesh": 3,
      "name": "Object_5"
    },
    {
      "mesh": 4,
      "name": "Object_6"
    },
    {
      "mesh": 5,
      "name": "Object_7"
    }
  ],
  "scene": 0,
  "scenes": [
    {
      "name": "Sketchfab_Scene",
      "nodes": [
        0
      ]
    }
  ]
}
