{
  "accessors": [
    {
      "bufferView": 1,
      "componentType": 5126,
      "count": 65534,
      "max": [
        120.68000030517578,
        -12.15999984741211,
        97.87999725341797
      ],
      "min": [
        4.800000190734863,
        -131.5399932861328,
        46.099998474121094
      ],
      "type": "VEC3"
    },
    {
      "bufferView": 1,
      "byteOffset": 786408,
      "componentType": 5126,
      "count": 65534,
      "max": [
        1.0,
        1.0,
        1.0
      ],
      "min": [
        -1.0,
        -1.0,
        -1.0
      ],
      "type": "VEC3"
    },
    {
      "bufferView": 0,
      "componentType": 5125,
      "count": 66525,
      "type": "SCALAR"
    },
    {
      "bufferView": 1,
      "byteOffset": 1572816,
      "componentType": 5126,
      "count": 65533,
      "max": [
        158.86000061035156,
        -0.0,
        114.93998718261719
      ],
      "min": [
        0.019999999552965164,
        -135.97999572753906,
        35.060001373291016
      ],
      "type": "VEC3"
    },
    {
      "bufferView": 1,
      "byteOffset": 2359212,
      "componentType": 5126,
      "count": 65533,
      "max": [
        1.0,
        1.0,
        1.0
      ],
      "min": [
        -1.0,
        -1.0,
        -1.0
      ],
      "type": "VEC3"
    },
    {
      "bufferView": 0,
      "byteOffset": 266100,
      "componentType": 5125,
      "count": 67230,
      "type": "SCALAR"
    },
    {
      "bufferView": 1,
      "byteOffset": 3145608,
      "componentType": 5126,
      "count": 65532,
      "max": [
        159.33999633789063,
        -0.0,
        114.93998718261719
      ],
      "min": [
        0.0,
        -131.47999572753906,
        41.619998931884766
      ],
      "type": "VEC3"
    },
    {
      "bufferView": 1,
      "byteOffset": 3931992,
      "componentType": 5126,
      "count": 65532,
      "max": [
        1.0,
        1.0,
        1.0
      ],
      "min": [
        -1.0,
        -1.0,
        -1.0
      ],
      "type": "VEC3"
    },
    {
      "bufferView": 0,
      "byteOffset": 535020,
      "componentType": 5125,
      "count": 67869,
      "type": "SCALAR"
    },
    {
      "bufferView": 1,
      "byteOffset": 4718376,
      "componentType": 5126,
      "count": 65534,
      "max": [
        159.33999633789063,
        -0.0,
        114.93998718261719
      ],
      "min": [
        0.05999999865889549,
        -134.9199981689453,
        41.619998931884766
      ],
      "type": "VEC3"
    },
    {
      "bufferView": 1,
      "byteOffset": 5504784,
      "componentType": 5126,
      "count": 65534,
      "max": [
        1.0,
        1.0,
        1.0
      ],
      "min": [
        -1.0,
        -1.0,
        -1.0
      ],
      "type": "VEC3"
    },
    {
      "bufferView": 0,
      "byteOffset": 806496,
      "componentType": 5125,
      "count": 67116,
      "type": "SCALAR"
    },
    {
      "bufferView": 1,
      "byteOffset": 6291192,
      "componentType": 5126,
      "count": 65534,
      "max": [
        143.25999450683594,
        -12.15999984741211,
        109.19999694824219
      ],
      "min": [
        4.800000190734863,
        -135.0,
        35.15999984741211
      ],
      "type": "VEC3"
    },
    {
      "bufferView": 1,
      "byteOffset": 7077600,
      "componentType": 5126,
      "count": 65534,
      "max": [
        1.0,
        1.0,
        1.0
      ],
      "min": [
        -1.0,
        -1.0,
        -1.0
      ],
      "type": "VEC3"
    },
    {
      "bufferView": 0,
      "byteOffset": 1074960,
      "componentType": 5125,
      "count": 66210,
      "type": "SCALAR"
    },
    {
      "bufferView": 1,
      "byteOffset": 7864008,
      "componentType": 5126,
      "count": 65533,
      "max": [
        159.3000030517578,
        -0.0,
        114.93998718261719
      ],
      "min": [
        0.019999999552965164,
        -131.36000061035156,
        35.060001373291016
      ],
      "type": "VEC3"
    },
    {
      "bufferView": 1,
      "byteOffset": 8650404,
      "componentType": 5126,
      "count": 65533,
      "max": [
        1.0,
        1.0,
        1.0
      ],
      "min": [
        -1.0,
        -1.0,
        -1.0
      ],
      "type": "VEC3"
    },
    {
      "bufferView": 0,
      "byteOffset": 1339800,
      "componentType": 5125,
      "count": 66603,
      "type": "SCALAR"
    },
    {
      "bufferView": 1,
      "byteOffset": 9436800,
      "componentType": 5126,
      "count": 65533,
      "max": [
        159.33999633789063,
        -0.0,
        114.87999725341797
      ],
      "min": [
        0.10000000149011612,
        -149.95999145507813,
        41.720001220703125
      ],
      "type": "VEC3"
    },
    {
      "bufferView": 1,
      "byteOffset": 10223196,
      "componentType": 5126,
      "count": 65533,
      "max": [
        1.0,
        1.0,
        1.0
      ],
      "min": [
        -1.0,
        -1.0,
        -1.0
      ],
      "type": "VEC3"
    },
    {
      "bufferView": 0,
      "byteOffset": 1606212,
      "componentType": 5125,
      "count": 68787,
      "type": "SCALAR"
    },
    {
      "bufferView": 1,
      "byteOffset": 11009592,
      "componentType": 5126,
      "count": 65533,
      "max": [
        143.25999450683594,
        -12.319999694824219,
        109.19999694824219
      ],
      "min": [
        4.800000190734863,
        -149.45999145507813,
        35.040000915527344
      ],
      "type": "VEC3"
    },
    {
      "bufferView": 1,
      "byteOffset": 11795988,
      "componentType": 5126,
      "count": 65533,
      "max": [
        1.0,
        1.0,
        1.0
      ],
      "min": [
        -1.0,
        -1.0,
        -1.0
      ],
      "type": "VEC3"
    },
    {
      "bufferView": 0,
      "byteOffset": 1881360,
      "componentType": 5125,
      "count": 66144,
      "type": "SCALAR"
    },
    {
      "bufferView": 1,
      "byteOffset": 12582384,
      "componentType": 5126,
      "count": 65534,
      "max": [
        159.33999633789063,
        -0.0,
        114.93998718261719
      ],
      "min": [
        0.0,
        -95.86000061035156,
        35.86000061035156
      ],
      "type": "VEC3"
    },
    {
      "bufferView": 1,
      "byteOffset": 13368792,
      "componentType": 5126,
      "count": 65534,
      "max": [
        1.0,
        1.0,
        1.0
      ],
      "min": [
        -1.0,
        -1.0,
        -1.0
      ],
      "type": "VEC3"
    },
    {
      "bufferView": 0,
      "byteOffset": 2145936,
      "componentType": 5125,
      "count": 66201,
      "type": "SCALAR"
    },
    {
      "bufferView": 1,
      "byteOffset": 14155200,
      "componentType": 5126,
      "count": 65534,
      "max": [
        159.33999633789063,
        -0.0,
        114.93998718261719
      ],
      "min": [
        0.10000000149011612,
        -149.95999145507813,
        41.619998931884766
      ],
      "type": "VEC3"
    },
    {
      "bufferView": 1,
      "byteOffset": 14941608,
      "componentType": 5126,
      "count": 65534,
      "max": [
        1.0,
        1.0,
        1.0
      ],
      "min": [
        -1.0,
        -1.0,
        -1.0
      ],
      "type": "VEC3"
    },
    {
      "bufferView": 0,
      "byteOffset": 2410740,
      "componentType": 5125,
      "count": 66270,
      "type": "SCALAR"
    },
    {
      "bufferView": 1,
      "byteOffset": 15728016,
      "componentType": 5126,
      "count": 65533,
      "max": [
        158.86000061035156,
        -0.0,
        114.93998718261719
      ],
      "min": [
        0.0,
        -149.8199920654297,
        41.619998931884766
      ],
      "type": "VEC3"
    },
    {
      "bufferView": 1,
      "byteOffset": 16514412,
      "componentType": 5126,
      "count": 65533,
      "max": [
        1.0,
        1.0,
        1.0
      ],
      "min": [
        -1.0,
        -1.0,
        -1.0
      ],
      "type": "VEC3"
    },
    {
      "bufferView": 0,
      "byteOffset": 2675820,
      "componentType": 5125,
      "count": 66156,
      "type": "SCALAR"
    },
    {
      "bufferView": 1,
      "byteOffset": 17300808,
      "componentType": 5126,
      "count": 65534,
      "max": [
        159.25999450683594,
        -0.0,
        114.93998718261719
      ],
      "min": [
        0.019999999552965164,
        -149.95999145507813,
        41.619998931884766
      ],
      "type": "VEC3"
    },
    {
      "bufferView": 1,
      "byteOffset": 18087216,
      "componentType": 5126,
      "count": 65534,
      "max": [
        1.0,
        1.0,
        1.0
      ],
      "min": [
        -1.0,
        -1.0,
        -1.0
      ],
      "type": "VEC3"
    },
    {
      "bufferView": 0,
      "byteOffset": 2940444,
      "componentType": 5125,
      "count": 65997,
      "type": "SCALAR"
    },
    {
      "bufferView": 1,
      "byteOffset": 18873624,
      "componentType": 5126,
      "count": 65533,
      "max": [
        143.25999450683594,
        -12.15999984741211,
        109.19999694824219
      ],
      "min": [
        4.800000190734863,
        -149.8000030517578,
        35.34000015258789
      ],
      "type": "VEC3"
    },
    {
      "bufferView": 1,
      "byteOffset": 19660020,
      "componentType": 5126,
      "count": 65533,
      "max": [
        1.0,
        1.0,
        1.0
      ],
      "min": [
        -1.0,
        -1.0,
        -1.0
      ],
      "type": "VEC3"
    },
    {
      "bufferView": 0,
      "byteOffset": 3204432,
      "componentType": 5125,
      "count": 66024,
      "type": "SCALAR"
    },
    {
      "bufferView": 1,
      "byteOffset": 20446416,
      "componentType": 5126,
      "count": 65532,
      "max": [
        159.33999633789063,
        -0.0,
        114.93998718261719
      ],
      "min": [
        0.0,
        -93.22000122070313,
        36.779998779296875
      ],
      "type": "VEC3"
    },
    {
      "bufferView": 1,
      "byteOffset": 21232800,
      "componentType": 5126,
      "count": 65532,
      "max": [
        1.0,
        1.0,
        1.0
      ],
      "min": [
        -1.0,
        -1.0,
        -1.0
      ],
      "type": "VEC3"
    },
    {
      "bufferView": 0,
      "byteOffset": 3468528,
      "componentType": 5125,
      "count": 65937,
      "type": "SCALAR"
    },
    {
      "bufferView": 1,
      "byteOffset": 22019184,
      "componentType": 5126,
      "count": 65534,
      "max": [
        159.33999633789063,
        -0.0,
        114.93998718261719
      ],
      "min": [
        0.0,
        -40.02000045776367,
        41.619998931884766
      ],
      "type": "VEC3"
    },
    {
      "bufferView": 1,
      "byteOffset": 22805592,
      "componentType": 5126,
      "count": 65534,
      "max": [
        1.0,
        1.0,
        1.0
      ],
      "min": [
        -1.0,
        -1.0,
        -1.0
      ],
      "type": "VEC3"
    },
    {
      "bufferView": 0,
      "byteOffset": 3732276,
      "componentType": 5125,
      "count": 65898,
      "type": "SCALAR"
    },
    {
      "bufferView": 1,
      "byteOffset": 23592000,
      "componentType": 5126,
      "count": 65534,
      "max": [
        158.5800018310547,
        -0.0,
        114.93998718261719
      ],
      "min": [
        0.11999999731779099,
        -95.9000015258789,
        35.040000915527344
      ],
      "type": "VEC3"
    },
    {
      "bufferView": 1,
      "byteOffset": 24378408,
      "componentType": 5126,
      "count": 65534,
      "max": [
        1.0,
        1.0,
        1.0
      ],
      "min": [
        -1.0,
        -1.0,
        -1.0
      ],
      "type": "VEC3"
    },
    {
      "bufferView": 0,
      "byteOffset": 3995868,
      "componentType": 5125,
      "count": 65901,
      "type": "SCALAR"
    },
    {
      "bufferView": 1,
      "byteOffset": 25164816,
      "componentType": 5126,
      "count": 65533,
      "max": [
        157.09999084472656,
        -0.0,
        114.83999633789063
      ],
      "min": [
        0.5,
        -95.9000015258789,
        35.060001373291016
      ],
      "type": "VEC3"
    },
    {
      "bufferView": 1,
      "byteOffset": 25951212,
      "componentType": 5126,
      "count": 65533,
      "max": [
        1.0,
        1.0,
        1.0
      ],
      "min": [
        -1.0,
        -1.0,
        -1.0
      ],
      "type": "VEC3"
    },
    {
      "bufferView": 0,
      "byteOffset": 4259472,
      "componentType": 5125,
      "count": 65808,
      "type": "SCALAR"
    },
    {
      "bufferView": 1,
      "byteOffset": 26737608,
      "componentType": 5126,
      "count": 65533,
      "max": [
        96.33999633789063,
        -12.199999809265137,
        99.18000030517578
      ],
      "min": [
        4.800000190734863,
        -149.95999145507813,
        46.099998474121094
      ],
      "type": "VEC3"
    },
    {
      "bufferView": 1,
      "byteOffset": 27524004,
      "componentType": 5126,
      "count": 65533,
      "max": [
        1.0,
        1.0,
        1.0
      ],
      "min": [
        -1.0,
        -1.0,
        -1.0
      ],
      "type": "VEC3"
    },
    {
      "bufferView": 0,
      "byteOffset": 4522704,
      "componentType": 5125,
      "count": 65787,
      "type": "SCALAR"
    },
    {
      "bufferView": 1,
      "byteOffset": 28310400,
      "componentType": 5126,
      "count": 65533,
      "max": [
        159.3000030517578,
        -0.0,
        114.89998626708984
      ],
      "min": [
        0.0,
        -149.95999145507813,
        41.619998931884766
      ],
      "type": "VEC3"
    },
    {
      "bufferView": 1,
      "byteOffset": 29096796,
      "componentType": 5126,
      "count": 65533,
      "max": [
        1.0,
        1.0,
        1.0
      ],
      "min": [
        -1.0,
        -1.0,
        -1.0
      ],
      "type": "VEC3"
    },
    {
      "bufferView": 0,
      "byteOffset": 4785852,
      "componentType": 5125,
      "count": 65721,
      "type": "SCALAR"
    },
    {
      "bufferView": 1,
      "byteOffset": 29883192,
      "componentType": 5126,
      "count": 65533,
      "max": [
        159.33999633789063,
        -0.0,
        114.93998718261719
      ],
      "min": [
        0.0,
        -40.02000045776367,
        41.619998931884766
      ],
      "type": "VEC3"
    },
    {
      "bufferView": 1,
      "byteOffset": 30669588,
      "componentType": 5126,
      "count": 65533,
      "max": [
        1.0,
        1.0,
        1.0
      ],
      "min": [
        -1.0,
        -1.0,
        -1.0
      ],
      "type": "VEC3"
    },
    {
      "bufferView": 0,
      "byteOffset": 5048736,
      "componentType": 5125,
      "count": 65706,
      "type": "SCALAR"
    },
    {
      "bufferView": 1,
      "byteOffset": 31455984,
      "componentType": 5126,
      "count": 65532,
      "max": [
        159.33999633789063,
        -0.0,
        114.89998626708984
      ],
      "min": [
        0.1599999964237213,
        -95.9000015258789,
        35.040000915527344
      ],
      "type": "VEC3"
    },
    {
      "bufferView": 1,
      "byteOffset": 32242368,
      "componentType": 5126,
      "count": 65532,
      "max": [
        1.0,
        1.0,
        1.0
      ],
      "min": [
        -1.0,
        -1.0,
        -1.0
      ],
      "type": "VEC3"
    },
    {
      "bufferView": 0,
      "byteOffset": 5311560,
      "componentType": 5125,
      "count": 65727,
      "type": "SCALAR"
    },
    {
      "bufferView": 1,
      "byteOffset": 33028752,
      "componentType": 5126,
      "count": 42236,
      "max": [
        96.43998718261719,
        -12.199999809265137,
        98.91999816894531
      ],
      "min": [
        4.840000152587891,
        -149.95999145507813,
        46.41999816894531
      ],
      "type": "VEC3"
    },
    {
      "bufferView": 1,
      "byteOffset": 33535584,
      "componentType": 5126,
      "count": 42236,
      "max": [
        1.0,
        1.0,
        1.0
      ],
      "min": [
        -1.0,
        -1.0,
        -1.0
      ],
      "type": "VEC3"
    },
    {
      "bufferView": 0,
      "byteOffset": 5574468,
      "componentType": 5125,
      "count": 42369,
      "type": "SCALAR"
    }
  ],
  "asset": {
    "extras": {
      "author": "3DLadnik (https://sketchfab.com/3DLadnik)",
      "license": "CC-BY-4.0 (http://creativecommons.org/licenses/by/4.0/)",
      "source": "https://sketchfab.com/3d-models/3d-printable-psyche-revived-by-cupid-63c85f72410a4306bfe73978fca8c1b5",
      "title": "3D Printable Psyche Revived By Cupid"
    },
    "generator": "Sketchfab-12.66.0",
    "version": "2.0"
  },
  "bufferViews": [
    {
      "buffer": 0,
      "byteLength": 5743944,
      "name": "floatBufferViews",
      "target": 34963
    },
    {
      "buffer": 0,
      "byteLength": 34042416,
      "byteOffset": 5743944,
      "byteStride": 12,
      "name": "floatBufferViews",
      "target": 34962
    }
  ],
  "buffers": [
    {
      "byteLength": 39786360,
      "uri": "scene.bin"
    }
  ],
  "extensionsUsed": [
    "KHR_materials_clearcoat"
  ],
  "materials": [
    {
      "doubleSided": true,
      "extensions": {
        "KHR_materials_clearcoat": {
          "clearcoatFactor": 1.0,
          "clearcoatRoughnessFactor": 0.04
        }
      },
      "name": "material_0",
      "pbrMetallicRoughness": {
        "metallicFactor": 0.5,
        "roughnessFactor": 0.6
      }
    }
  ],
  "meshes": [
    {
      "name": "Object_0",
      "primitives": [
        {
          "attributes": {
            "NORMAL": 1,
            "POSITION": 0
          },
          "indices": 2,
          "material": 0,
          "mode": 4
        }
      ]
    },
    {
      "name": "Object_1",
      "primitives": [
        {
          "attributes": {
            "NORMAL": 4,
            "POSITION": 3
          },
          "indices": 5,
          "material": 0,
          "mode": 4
        }
      ]
    },
    {
      "name": "Object_2",
      "primitives": [
        {
          "attributes": {
            "NORMAL": 7,
            "POSITION": 6
          },
          "indices": 8,
          "material": 0,
          "mode": 4
        }
      ]
    },
    {
      "name": "Object_3",
      "primitives": [
        {
          "attributes": {
            "NORMAL": 10,
            "POSITION": 9
          },
          "indices": 11,
          "material": 0,
          "mode": 4
        }
      ]
    },
    {
      "name": "Object_4",
      "primitives": [
        {
          "attributes": {
            "NORMAL": 13,
            "POSITION": 12
          },
          "indices": 14,
          "material": 0,
          "mode": 4
        }
      ]
    },
    {
      "name": "Object_5",
      "primitives": [
        {
          "attributes": {
            "NORMAL": 16,
            "POSITION": 15
          },
          "indices": 17,
          "material": 0,
          "mode": 4
        }
      ]
    },
    {
      "name": "Object_6",
      "primitives": [
        {
          "attributes": {
            "NORMAL": 19,
            "POSITION": 18
          },
          "indices": 20,
          "material": 0,
          "mode": 4
        }
      ]
    },
    {
      "name": "Object_7",
      "primitives": [
        {
          "attributes": {
            "NORMAL": 22,
            "POSITION": 21
          },
          "indices": 23,
          "material": 0,
          "mode": 4
        }
      ]
    },
    {
      "name": "Object_8",
      "primitives": [
        {
          "attributes": {
            "NORMAL": 25,
            "POSITION": 24
          },
          "indices": 26,
          "material": 0,
          "mode": 4
        }
      ]
    },
    {
      "name": "Object_9",
      "primitives": [
        {
          "attributes": {
            "NORMAL": 28,
            "POSITION": 27
          },
          "indices": 29,
          "material": 0,
          "mode": 4
        }
      ]
    },
    {
      "name": "Object_10",
      "primitives": [
        {
          "attributes": {
            "NORMAL": 31,
            "POSITION": 30
          },
          "indices": 32,
          "material": 0,
          "mode": 4
        }
      ]
    },
    {
      "name": "Object_11",
      "primitives": [
        {
          "attributes": {
            "NORMAL": 34,
            "POSITION": 33
          },
          "indices": 35,
          "material": 0,
          "mode": 4
        }
      ]
    },
    {
      "name": "Object_12",
      "primitives": [
        {
          "attributes": {
            "NORMAL": 37,
            "POSITION": 36
          },
          "indices": 38,
          "material": 0,
          "mode": 4
        }
      ]
    },
    {
      "name": "Object_13",
      "primitives": [
        {
          "attributes": {
            "NORMAL": 40,
            "POSITION": 39
          },
          "indices": 41,
          "material": 0,
          "mode": 4
        }
      ]
    },
    {
      "name": "Object_14",
      "primitives": [
        {
          "attributes": {
            "NORMAL": 43,
            "POSITION": 42
          },
          "indices": 44,
          "material": 0,
          "mode": 4
        }
      ]
    },
    {
      "name": "Object_15",
      "primitives": [
        {
          "attributes": {
            "NORMAL": 46,
            "POSITION": 45
          },
          "indices": 47,
          "material": 0,
          "mode": 4
        }
      ]
    },
    {
      "name": "Object_16",
      "primitives": [
        {
          "attributes": {
            "NORMAL": 49,
            "POSITION": 48
          },
          "indices": 50,
          "material": 0,
          "mode": 4
        }
      ]
    },
    {
      "name": "Object_17",
      "primitives": [
        {
          "attributes": {
            "NORMAL": 52,
            "POSITION": 51
          },
          "indices": 53,
          "material": 0,
          "mode": 4
        }
      ]
    },
    {
      "name": "Object_18",
      "primitives": [
        {
          "attributes": {
            "NORMAL": 55,
            "POSITION": 54
          },
          "indices": 56,
          "material": 0,
          "mode": 4
        }
      ]
    },
    {
      "name": "Object_19",
      "primitives": [
        {
          "attributes": {
            "NORMAL": 58,
            "POSITION": 57
          },
          "indices": 59,
          "material": 0,
          "mode": 4
        }
      ]
    },
    {
      "name": "Object_20",
      "primitives": [
        {
          "attributes": {
            "NORMAL": 61,
            "POSITION": 60
          },
          "indices": 62,
          "material": 0,
          "mode": 4
        }
      ]
    },
    {
      "name": "Object_21",
      "primitives": [
        {
          "attributes": {
            "NORMAL": 64,
            "POSITION": 63
          },
          "indices": 65,
          "material": 0,
          "mode": 4
        }
      ]
    }
  ],
  "nodes": [
    {
      "children": [
        1
      ],
      "matrix": [
        1.0,
        1.608122622957729e-16,
        1.6081226229577294e-16,
        0.0,
        1.6081226229577292e-16,
        -1.0,
        -4.440892098500626e-16,
        0.0,
        1.6081226229577292e-16,
        4.440892098500626e-16,
        -1.0,
        0.0,
        0.0,
        0.01008434034880646,
        149.96995544433594,
        1.0
      ],
      "name": "Sketchfab_model"
    },
    {
      "children": [
        2,
        3,
        4,
        5,
        6,
        7,
        8,
        9,
        10,
        11,
        12,
        13,
        14,
        15,
        16,
        17,
        18,
        19,
        20,
        21,
        22,
        23
      ],
      "name": "LouvrePsycheRevivedByCupidR.obj.cleaner.materialmerger.gles"
    },
    {
      "mesh": 0,
      "name": "Object_2"
    },
    {
      "mesh": 1,
      "name": "Object_3"
    },
    {
      "mesh": 2,
      "name": "Object_4"
    },
    {
      "mesh": 3,
      "name": "Object_5"
    },
    {
      "mesh": 4,
      "name": "Object_6"
    },
    {
      "mesh": 5,
      "name": "Object_7"
    },
    {
      "mesh": 6,
      "name": "Object_8"
    },
    {
      "mesh": 7,
      "name": "Object_9"
    },
    {
      "mesh": 8,
      "name": "Object_10"
    },
    {
      "mesh": 9,
      "name": "Object_11"
    },
    {
      "mesh": 10,
      "name": "Object_12"
    },
    {
      "mesh": 11,
      "name": "Object_13"
    },
    {
      "mesh": 12,
      "name": "Object_14"
    },
    {
      "mesh": 13,
      "name": "Object_15"
    },
    {
      "mesh": 14,
      "name": "Object_16"
    },
    {
      "mesh": 15,
      "name": "Object_17"
    },
    {
      "mesh": 16,
      "name": "Object_18"
    },
    {
      "mesh": 17,
      "name": "Object_19"
    },
    {
      "mesh": 18,
      "name": "Object_20"
    },
    {
      "mesh": 19,
      "name": "Object_21"
    },
    {
      "mesh": 20,
      "name": "Object_22"
    },
    {
      "mesh": 21,
      "name": "Object_23"
    }
  ],
  "scene": 0,
  "scenes": [
    {
      "name": "Sketchfab_Scene",
      "nodes": [
        0
      ]
    }
  ]
}
