{
  "accessors": [
    {
      "bufferView": 2,
      "componentType": 5126,
      "count": 65532,
      "max": [
        1.6657160520553589,
        0.36508598923683167,
        5.420187950134277
      ],
      "min": [
        -1.3408340215682983,
        -1.691575050354004,
        0.974590003490448
      ],
      "type": "VEC3"
    },
    {
      "bufferView": 2,
      "byteOffset": 786384,
      "componentType": 5126,
      "count": 65532,
      "max": [
        0.9999473094940186,
        0.9999761581420898,
        0.996721625328064
      ],
      "min": [
        -0.9999834299087524,
        -0.9999973773956299,
        -0.9999585151672363
      ],
      "type": "VEC3"
    },
    {
      "bufferView": 1,
      "componentType": 5126,
      "count": 65532,
      "max": [
        0.9993759989738464,
        0.9966480135917664
      ],
      "min": [
        0.000623999978415668,
        0.000623999978415668
      ],
      "type": "VEC2"
    },
    {
      "bufferView": 0,
      "componentType": 5125,
      "count": 173979,
      "type": "SCALAR"
    },
    {
      "bufferView": 2,
      "byteOffset": 1572768,
      "componentType": 5126,
      "count": 65532,
      "max": [
        1.6621060371398926,
        -0.9504240155220032,
        5.443684101104736
      ],
      "min": [
        -0.643642008304596,
        -1.6885629892349243,
        1.1285450458526611
      ],
      "type": "VEC3"
    },
    {
      "bufferView": 2,
      "byteOffset": 2359152,
      "componentType": 5126,
      "count": 65532,
      "max": [
        0.9999265670776367,
        0.9985088109970093,
        0.9999570846557617
      ],
      "min": [
        -0.9999834299087524,
        -0.9999147653579712,
        -0.999818742275238
      ],
      "type": "VEC3"
    },
    {
      "bufferView": 1,
      "byteOffset": 524256,
      "componentType": 5126,
      "count": 65532,
      "max": [
        0.9993780255317688,
        0.9973739981651306
      ],
      "min": [
        0.0006230000290088356,
        0.0006200000061653554
      ],
      "type": "VEC2"
    },
    {
      "bufferView": 0,
      "byteOffset": 695916,
      "componentType": 5125,
      "count": 137205,
      "type": "SCALAR"
    },
    {
      "bufferView": 2,
      "byteOffset": 3145536,
      "componentType": 5126,
      "count": 65532,
      "max": [
        1.6561249494552612,
        0.5184810161590576,
        6.059031009674072
      ],
      "min": [
        -1.3204180002212524,
        -1.5762619972229004,
        1.1780279874801636
      ],
      "type": "VEC3"
    },
    {
      "bufferView": 2,
      "byteOffset": 3931920,
      "componentType": 5126,
      "count": 65532,
      "max": [
        0.9997182488441467,
        0.9999951124191284,
        0.9992308616638184
      ],
      "min": [
        -0.9999442100524902,
        -0.9999951124191284,
        -0.9998200535774231
      ],
      "type": "VEC3"
    },
    {
      "bufferView": 1,
      "byteOffset": 1048512,
      "componentType": 5126,
      "count": 65532,
      "max": [
        0.9994440078735352,
        0.9962069988250732
      ],
      "min": [
        0.0006270000012591481,
        0.0006249999860301614
      ],
      "type": "VEC2"
    },
    {
      "bufferView": 0,
      "byteOffset": 1244736,
      "componentType": 5125,
      "count": 166014,
      "type": "SCALAR"
    },
    {
      "bufferView": 2,
      "byteOffset": 4718304,
      "componentType": 5126,
      "count": 65532,
      "max": [
        1.4341579675674438,
        0.5301849842071533,
        8.308719635009766
      ],
      "min": [
        -0.653128981590271,
        -1.0051380395889282,
        2.2391910552978516
      ],
      "type": "VEC3"
    },
    {
      "bufferView": 2,
      "byteOffset": 5504688,
      "componentType": 5126,
      "count": 65532,
      "max": [
        0.9999603033065796,
        0.9999911785125732,
        0.9999971389770508
      ],
      "min": [
        -0.9997631907463074,
        -0.9999903440475464,
        -0.9995227456092834
      ],
      "type": "VEC3"
    },
    {
      "bufferView": 1,
      "byteOffset": 1572768,
      "componentType": 5126,
      "count": 65532,
      "max": [
        0.9993820190429688,
        0.9973729848861694
      ],
      "min": [
        0.0006230000290088356,
        0.000623999978415668
      ],
      "type": "VEC2"
    },
    {
      "bufferView": 0,
      "byteOffset": 1908792,
      "componentType": 5125,
      "count": 153507,
      "type": "SCALAR"
    },
    {
      "bufferView": 2,
      "byteOffset": 6291072,
      "componentType": 5126,
      "count": 65533,
      "max": [
        1.426058053970337,
        0.3793500065803528,
        8.292336463928223
      ],
      "min": [
        -0.9588140249252319,
        -2.0255420207977295,
        0.14145100116729736
      ],
      "type": "VEC3"
    },
    {
      "bufferView": 2,
      "byteOffset": 7077468,
      "componentType": 5126,
      "count": 65533,
      "max": [
        0.9994522929191589,
        0.9998714923858643,
        0.9999697208404541
      ],
      "min": [
        -0.9999940395355225,
        -0.9999828338623047,
        -0.9999904632568359
      ],
      "type": "VEC3"
    },
    {
      "bufferView": 1,
      "byteOffset": 2097024,
      "componentType": 5126,
      "count": 65533,
      "max": [
        0.9993630051612854,
        0.9972540140151978
      ],
      "min": [
        0.0006230000290088356,
        0.0006230000290088356
      ],
      "type": "VEC2"
    },
    {
      "bufferView": 0,
      "byteOffset": 2522820,
      "componentType": 5125,
      "count": 156792,
      "type": "SCALAR"
    },
    {
      "bufferView": 2,
      "byteOffset": 7863864,
      "componentType": 5126,
      "count": 65532,
      "max": [
        1.7370259761810303,
        0.453794002532959,
        1.3012080192565918
      ],
      "min": [
        -0.9573789834976196,
        -2.12774395942688,
        0.13720500469207764
      ],
      "type": "VEC3"
    },
    {
      "bufferView": 2,
      "byteOffset": 8650248,
      "componentType": 5126,
      "count": 65532,
      "max": [
        0.9999945163726807,
        0.99998939037323,
        0.9999988079071045
      ],
      "min": [
        -0.9999979734420776,
        -0.9999992847442627,
        -0.9997367262840271
      ],
      "type": "VEC3"
    },
    {
      "bufferView": 1,
      "byteOffset": 2621288,
      "componentType": 5126,
      "count": 65532,
      "max": [
        0.9993699789047241,
        0.9545930027961731
      ],
      "min": [
        0.000623999978415668,
        0.0006220000213943422
      ],
      "type": "VEC2"
    },
    {
      "bufferView": 0,
      "byteOffset": 3149988,
      "componentType": 5125,
      "count": 156177,
      "type": "SCALAR"
    },
    {
      "bufferView": 2,
      "byteOffset": 9436632,
      "componentType": 5126,
      "count": 65532,
      "max": [
        1.6581339836120605,
        0.5751619935035706,
        1.326854944229126
      ],
      "min": [
        -0.9333040118217468,
        -2.0174779891967773,
        0.1372089982032776
      ],
      "type": "VEC3"
    },
    {
      "bufferView": 2,
      "byteOffset": 10223016,
      "componentType": 5126,
      "count": 65532,
      "max": [
        0.9999940395355225,
        1.0,
        0.9999984502792358
      ],
      "min": [
        -0.9999904632568359,
        -0.9999986886978149,
        -0.9955434799194336
      ],
      "type": "VEC3"
    },
    {
      "bufferView": 1,
      "byteOffset": 3145544,
      "componentType": 5126,
      "count": 65532,
      "max": [
        0.9993990063667297,
        0.9545919895172119
      ],
      "min": [
        0.0006280000088736415,
        0.0006249999860301614
      ],
      "type": "VEC2"
    },
    {
      "bufferView": 0,
      "byteOffset": 3774696,
      "componentType": 5125,
      "count": 155205,
      "type": "SCALAR"
    },
    {
      "bufferView": 2,
      "byteOffset": 11009400,
      "componentType": 5126,
      "count": 65532,
      "max": [
        1.7150590419769287,
        0.5751619935035706,
        8.242618560791016
      ],
      "min": [
        -0.5481359958648682,
        -1.238940954208374,
        0.15062400698661804
      ],
      "type": "VEC3"
    },
    {
      "bufferView": 2,
      "byteOffset": 11795784,
      "componentType": 5126,
      "count": 65532,
      "max": [
        0.9999982118606567,
        0.9999992847442627,
        0.999956488609314
      ],
      "min": [
        -0.9995947480201721,
        -0.999991774559021,
        -0.9997727274894714
      ],
      "type": "VEC3"
    },
    {
      "bufferView": 1,
      "byteOffset": 3669800,
      "componentType": 5126,
      "count": 65532,
      "max": [
        0.9993690252304077,
        0.9962069988250732
      ],
      "min": [
        0.0006290000164881349,
        0.0006210000137798488
      ],
      "type": "VEC2"
    },
    {
      "bufferView": 0,
      "byteOffset": 4395516,
      "componentType": 5125,
      "count": 150024,
      "type": "SCALAR"
    },
    {
      "bufferView": 2,
      "byteOffset": 12582168,
      "componentType": 5126,
      "count": 65532,
      "max": [
        1.6670019626617432,
        0.571403980255127,
        6.047526836395264
      ],
      "min": [
        -0.4092170000076294,
        -1.2307859659194946,
        1.1900529861450195
      ],
      "type": "VEC3"
    },
    {
      "bufferView": 2,
      "byteOffset": 13368552,
      "componentType": 5126,
      "count": 65532,
      "max": [
        0.9999566078186035,
        0.9999822378158569,
        0.9999425411224365
      ],
      "min": [
        -0.9998656511306763,
        -0.9999943971633911,
        -0.9997507929801941
      ],
      "type": "VEC3"
    },
    {
      "bufferView": 1,
      "byteOffset": 4194056,
      "componentType": 5126,
      "count": 65532,
      "max": [
        0.9993640184402466,
        0.9878349900245667
      ],
      "min": [
        0.0007280000136233866,
        0.000623999978415668
      ],
      "type": "VEC2"
    },
    {
      "bufferView": 0,
      "byteOffset": 4995612,
      "componentType": 5125,
      "count": 162249,
      "type": "SCALAR"
    },
    {
      "bufferView": 2,
      "byteOffset": 14154936,
      "componentType": 5126,
      "count": 65532,
      "max": [
        1.709805965423584,
        0.4325160086154938,
        6.031875133514404
      ],
      "min": [
        -0.26454201340675354,
        -1.2434920072555542,
        3.6517879962921143
      ],
      "type": "VEC3"
    },
    {
      "bufferView": 2,
      "byteOffset": 14941320,
      "componentType": 5126,
      "count": 65532,
      "max": [
        0.9999727010726929,
        0.9997348189353943,
        0.999583899974823
      ],
      "min": [
        -0.9999988079071045,
        -0.9999792575836182,
        -0.999752938747406
      ],
      "type": "VEC3"
    },
    {
      "bufferView": 1,
      "byteOffset": 4718312,
      "componentType": 5126,
      "count": 65532,
      "max": [
        0.9993590116500854,
        0.9944419860839844
      ],
      "min": [
        0.0006220000213943422,
        0.0006230000290088356
      ],
      "type": "VEC2"
    },
    {
      "bufferView": 0,
      "byteOffset": 5644608,
      "componentType": 5125,
      "count": 155712,
      "type": "SCALAR"
    },
    {
      "bufferView": 2,
      "byteOffset": 15727704,
      "componentType": 5126,
      "count": 65532,
      "max": [
        1.719565987586975,
        0.4329720139503479,
        6.032577991485596
      ],
      "min": [
        -0.2982729971408844,
        -1.1938719749450684,
        3.638948917388916
      ],
      "type": "VEC3"
    },
    {
      "bufferView": 2,
      "byteOffset": 16514088,
      "componentType": 5126,
      "count": 65532,
      "max": [
        0.9999903440475464,
        0.9998403191566467,
        0.9998658895492554
      ],
      "min": [
        -0.9999465942382813,
        -0.9999010562896729,
        -0.9999018907546997
      ],
      "type": "VEC3"
    },
    {
      "bufferView": 1,
      "byteOffset": 5242568,
      "componentType": 5126,
      "count": 65532,
      "max": [
        0.9993219971656799,
        0.9965819716453552
      ],
      "min": [
        0.000623999978415668,
        0.000623999978415668
      ],
      "type": "VEC2"
    },
    {
      "bufferView": 0,
      "byteOffset": 6267456,
      "componentType": 5125,
      "count": 145242,
      "type": "SCALAR"
    },
    {
      "bufferView": 2,
      "byteOffset": 17300472,
      "componentType": 5126,
      "count": 65532,
      "max": [
        1.731896996498108,
        0.4498080015182495,
        6.03214693069458
      ],
      "min": [
        -1.1673729419708252,
        -1.2856680154800415,
        1.1993459463119507
      ],
      "type": "VEC3"
    },
    {
      "bufferView": 2,
      "byteOffset": 18086856,
      "componentType": 5126,
      "count": 65532,
      "max": [
        0.9999938011169434,
        0.9999712705612183,
        0.9998663663864136
      ],
      "min": [
        -0.9999459981918335,
        -0.9999009370803833,
        -0.9999010562896729
      ],
      "type": "VEC3"
    },
    {
      "bufferView": 1,
      "byteOffset": 5766824,
      "componentType": 5126,
      "count": 65532,
      "max": [
        0.9993699789047241,
        0.998557984828949
      ],
      "min": [
        0.0006220000213943422,
        0.000623999978415668
      ],
      "type": "VEC2"
    },
    {
      "bufferView": 0,
      "byteOffset": 6848424,
      "componentType": 5125,
      "count": 134637,
      "type": "SCALAR"
    },
    {
      "bufferView": 2,
      "byteOffset": 18873240,
      "componentType": 5126,
      "count": 29150,
      "max": [
        -0.09732600301504135,
        0.4440839886665344,
        6.02683687210083
      ],
      "min": [
        -1.3185570240020752,
        -1.283607006072998,
        3.657665967941284
      ],
      "type": "VEC3"
    },
    {
      "bufferView": 2,
      "byteOffset": 19223040,
      "componentType": 5126,
      "count": 29150,
      "max": [
        0.9961116313934326,
        0.999933123588562,
        0.9968984723091125
      ],
      "min": [
        -0.9997395873069763,
        -0.9999698400497437,
        -0.99739009141922
      ],
      "type": "VEC3"
    },
    {
      "bufferView": 1,
      "byteOffset": 6291080,
      "componentType": 5126,
      "count": 29150,
      "max": [
        0.9993979930877686,
        0.9987559914588928
      ],
      "min": [
        0.0006270000012591481,
        0.0006220000213943422
      ],
      "type": "VEC2"
    },
    {
      "bufferView": 0,
      "byteOffset": 7386972,
      "componentType": 5125,
      "count": 67107,
      "type": "SCALAR"
    },
    {
      "bufferView": 2,
      "byteOffset": 19572840,
      "componentType": 5126,
      "count": 2157,
      "max": [
        1.6177680492401123,
        0.4713749885559082,
        0.16535699367523193
      ],
      "min": [
        -0.9469879865646362,
        -1.9474029541015625,
        0.13720500469207764
      ],
      "type": "VEC3"
    },
    {
      "bufferView": 2,
      "byteOffset": 19598724,
      "componentType": 5126,
      "count": 2157,
      "max": [
        0.09970001131296158,
        0.0263005830347538,
        -0.9948000907897949
      ],
      "min": [
        -0.09330341219902039,
        0.0016000585164874792,
        -0.9999455213546753
      ],
      "type": "VEC3"
    },
    {
      "bufferView": 1,
      "byteOffset": 6524280,
      "componentType": 5126,
      "count": 2157,
      "max": [
        0.523222029209137,
        0.9208909869194031
      ],
      "min": [
        0.4126740097999573,
        0.8058540225028992
      ],
      "type": "VEC2"
    },
    {
      "bufferView": 0,
      "byteOffset": 7655400,
      "componentType": 5125,
      "count": 3048,
      "type": "SCALAR"
    }
  ],
  "asset": {
    "extras": {
      "author": "noe-3d.at (https://sketchfab.com/www.noe-3d.at)",
      "license": "CC-BY-NC-4.0 (http://creativecommons.org/licenses/by-nc/4.0/)",
      "source": "https://sketchfab.com/3d-models/bacchus-6e4d1812a53642e6ba55eaebde68ea82",
      "title": "Bacchus"
    },
    "generator": "Sketchfab-16.59.0",
    "version": "2.0"
  },
  "bufferViews": [
    {
      "buffer": 0,
      "byteLength": 7667592,
      "name": "floatBufferViews",
      "target": 34963
    },
    {
      "buffer": 0,
      "byteLength": 6541536,
      "byteOffset": 7667592,
      "byteStride": 8,
      "name": "floatBufferViews",
      "target": 34962
    },
    {
      "buffer": 0,
      "byteLength": 19624608,
      "byteOffset": 14209128,
      "byteStride": 12,
      "name": "floatBufferViews",
      "target": 34962
    }
  ],
  "buffers": [
    {
      "byteLength": 33833736,
      "uri": "scene.bin"
    }
  ],
  "extensionsUsed": [
    "KHR_materials_specular"
  ],
  "images": [
    {
      "uri": "textures/Bacchus_O.001_baseColor.png"
    }
  ],
  "materials": [
    {
      "doubleSided": true,
      "extensions": {
        "KHR_materials_specular": {
          "specularColorFactor": [
            1.0,
            1.0,
            1.0
          ],
          "specularFactor": 0.0
        }
      },
      "name": "Bacchus_O.001",
      "pbrMetallicRoughness": {
        "baseColorTexture": {
          "index": 0
        },
        "metallicFactor": 0.0
      }
    },
    {
      "doubleSided": true,
      "extensions": {
        "KHR_materials_specular": {
          "specularColorFactor": [
            1.0,
            1.0,
            1.0
          ],
          "specularFactor": 0.0
        }
      },
      "name": "bottom",
      "pbrMetallicRoughness": {
        "baseColorFactor": [
          0.10204484948335092,
          0.09141955744087968,
          0.09141955744087968,
          1.0
        ],
        "metallicFactor": 0.0
      }
    }
  ],
  "meshes": [
    {
      "name": "Object_0",
      "primitives": [
        {
          "attributes": {
            "NORMAL": 1,
            "POSITION": 0,
            "TEXCOORD_0": 2
          },
          "indices": 3,
          "material": 0,
          "mode": 4
        }
      ]
    },
    {
      "name": "Object_1",
      "primitives": [
        {
          "attributes": {
            "NORMAL": 5,
            "POSITION": 4,
            "TEXCOORD_0": 6
          },
          "indices": 7,
          "material": 0,
          "mode": 4
        }
      ]
    },
    {
      "name": "Object_2",
      "primitives": [
        {
          "attributes": {
            "NORMAL": 9,
            "POSITION": 8,
            "TEXCOORD_0": 10
          },
          "indices": 11,
          "material": 0,
          "mode": 4
        }
      ]
    },
    {
      "name": "Object_3",
      "primitives": [
        {
          "attributes": {
            "NORMAL": 13,
            "POSITION": 12,
            "TEXCOORD_0": 14
          },
          "indices": 15,
          "material": 0,
          "mode": 4
        }
      ]
    },
    {
      "name": "Object_4",
      "primitives": [
        {
          "attributes": {
            "NORMAL": 17,
            "POSITION": 16,
            "TEXCOORD_0": 18
          },
          "indices": 19,
          "material": 0,
          "mode": 4
        }
      ]
    },
    {
      "name": "Object_5",
      "primitives": [
        {
          "attributes": {
            "NORMAL": 21,
            "POSITION": 20,
            "TEXCOORD_0": 22
          },
          "indices": 23,
          "material": 0,
          "mode": 4
        }
      ]
    },
    {
      "name": "Object_6",
      "primitives": [
        {
          "attributes": {
            "NORMAL": 25,
            "POSITION": 24,
            "TEXCOORD_0": 26
          },
          "indices": 27,
          "material": 0,
          "mode": 4
        }
      ]
    },
    {
      "name": "Object_7",
      "primitives": [
        {
          "attributes": {
            "NORMAL": 29,
            "POSITION": 28,
            "TEXCOORD_0": 30
          },
          "indices": 31,
          "material": 0,
          "mode": 4
        }
      ]
    },
    {
      "name": "Object_8",
      "primitives": [
        {
          "attributes": {
            "NORMAL": 33,
            "POSITION": 32,
            "TEXCOORD_0": 34
          },
          "indices": 35,
          "material": 0,
          "mode": 4
        }
      ]
    },
    {
      "name": "Object_9",
      "primitives": [
        {
          "attributes": {
            "NORMAL": 37,
            "POSITION": 36,
            "TEXCOORD_0": 38
          },
          "indices": 39,
          "material": 0,
          "mode": 4
        }
      ]
    },
    {
      "name": "Object_10",
      "primitives": [
        {
          "attributes": {
            "NORMAL": 41,
            "POSITION": 40,
            "TEXCOORD_0": 42
          },
          "indices": 43,
          "material": 0,
          "mode": 4
        }
      ]
    },
    {
      "name": "Object_11",
      "primitives": [
        {
          "attributes": {
            "NORMAL": 45,
            "POSITION": 44,
            "TEXCOORD_0": 46
          },
          "indices": 47,
          "material": 0,
          "mode": 4
        }
      ]
    },
    {
      "name": "Object_12",
      "primitives": [
        {
          "attributes": {
            "NORMAL": 49,
            "POSITION": 48,
            "TEXCOORD_0": 50
          },
          "indices": 51,
          "material": 0,
          "mode": 4
        }
      ]
    },
    {
      "name": "Object_13",
      "primitives": [
        {
          "attributes": {
            "NORMAL": 53,
            "POSITION": 52,
            "TEXCOORD_0": 54
          },
          "indices": 55,
          "material": 1,
          "mode": 4
        }
      ]
    }
  ],
  "nodes": [
    {
      "children": [
        1
      ],
      "matrix": [
        0.26054462790489197,
        0.0,
        0.0,
        0.0,
        0.0,
        -0.0018200116862236552,
        -0.26053827626986426,
        0.0,
        0.0,
        0.26053827626986426,
        -0.0018200116862236552,
        0.0,
        0.0,
        0.0,
        0.0,
        1.0
      ],
      "name": "Sketchfab_model"
    },
    {
      "children": [
        2,
        3,
        4,
        5,
        6,
        7,
        8,
        9,
        10,
        11,
        12,
        13,
        14,
        15
      ],
      "name": "Bacchus_C.obj.cleaner.materialmerger.gles"
    },
    {
      "mesh": 0,
      "name": "Object_2"
    },
    {
      "mesh": 1,
      "name": "Object_3"
    },
    {
      "mesh": 2,
      "name": "Object_4"
    },
    {
      "mesh": 3,
      "name": "Object_5"
    },
    {
      "mesh": 4,
      "name": "Object_6"
    },
    {
      "mesh": 5,
      "name": "Object_7"
    },
    {
      "mesh": 6,
      "name": "Object_8"
    },
    {
      "mesh": 7,
      "name": "Object_9"
    },
    {
      "mesh": 8,
      "name": "Object_10"
    },
    {
      "mesh": 9,
      "name": "Object_11"
    },
    {
      "mesh": 10,
      "name": "Object_12"
    },
    {
      "mesh": 11,
      "name": "Object_13"
    },
    {
      "mesh": 12,
      "name": "Object_14"
    },
    {
      "mesh": 13,
      "name": "Object_15"
    }
  ],
  "samplers": [
    {
      "magFilter": 9729,
      "minFilter": 9987,
      "wrapS": 10497,
      "wrapT": 10497
    }
  ],
  "scene": 0,
  "scenes": [
    {
      "name": "Sketchfab_Scene",
      "nodes": [
        0
      ]
    }
  ],
  "textures": [
    {
      "sampler": 0,
      "source": 0
    }
  ]
}
